<svg width="187" height="57" viewBox="0 0 187 57" fill="none" xmlns="http://www.w3.org/2000/svg">
<path d="M47.7602 47.8049L43.8316 14.8143C43.7015 13.754 42.822 12.9551 41.7864 12.9551H34.4731V10.8464C34.4731 4.86781 29.7345 0 23.9082 0C18.0819 0 13.3434 4.86781 13.3434 10.8464V12.9551V17.1814V22.7798C12.1978 23.4956 11.4283 24.7845 11.4283 26.2636C11.4283 28.5178 13.2074 30.3414 15.4002 30.3414C17.593 30.3414 19.3722 28.5148 19.3722 26.2636C19.3722 24.7845 18.6027 23.4956 17.4571 22.7798V17.1814H27.5012V12.9551H17.4571V10.8464C17.4571 7.19628 20.35 4.22629 23.9053 4.22629C27.4607 4.22629 30.3536 7.19628 30.3536 10.8464V12.9551V17.1814V22.7798C29.208 23.4956 28.4385 24.7845 28.4385 26.2636C28.4385 28.5178 30.2177 30.3414 32.4105 30.3414C34.6033 30.3414 36.3824 28.5148 36.3824 26.2636C36.3824 24.7845 35.6129 23.4956 34.4673 22.7798V17.1814H39.9552L43.6638 48.3187C43.8027 49.4592 43.4671 50.567 42.7208 51.4342C41.9773 52.2955 40.9474 52.7707 39.8192 52.7707H7.9886C6.86615 52.7707 5.83339 52.2955 5.08702 51.4342C4.34354 50.567 4.01086 49.4592 4.14393 48.3158L7.85263 17.1814H10.491V12.9551H6.02721C4.98866 12.9551 4.11211 13.754 3.98772 14.8143L0.059157 47.8049C-0.218561 50.1304 0.490199 52.4737 2.00319 54.2349C3.52196 55.9932 5.70321 57 7.98571 57H39.8192C42.1104 57 44.2916 55.9902 45.8017 54.2349C47.3205 52.4767 48.0321 50.1334 47.7544 47.8049H47.7602Z" fill="url(#paint0_linear_341_1826)"/>
<path d="M36.1309 36.614C36.1511 36.222 35.8358 35.8982 35.454 35.8982H12.3628C11.981 35.8982 11.6627 36.222 11.6859 36.614C12.0475 43.2222 17.382 48.4672 23.9084 48.4672C30.4348 48.4672 35.7693 43.2222 36.1309 36.614Z" fill="url(#paint1_linear_341_1826)"/>
<path d="M67.2498 24.4608C69.1331 23.3501 71.2825 22.7947 73.6894 22.7947C76.2727 22.7947 78.5928 23.4213 80.6526 24.6747C82.7123 25.931 84.3352 27.6951 85.5213 29.9702C86.7074 32.2452 87.3005 34.8885 87.3005 37.9C87.3005 40.9116 86.7074 43.5252 85.5213 45.8566C84.3352 48.1851 82.7008 49.9968 80.6266 51.2858C78.5494 52.5747 76.2351 53.2192 73.6894 53.2192C71.1436 53.2192 69.0376 52.6638 67.1688 51.5531C65.3 50.4423 63.8969 49.0256 62.9538 47.306V52.1144C62.9538 52.4589 62.6819 52.7351 62.3492 52.7351H58.7938C58.4582 52.7351 58.1892 52.4559 58.1892 52.1144V13.5788C58.1892 13.2343 58.4611 12.9581 58.7938 12.9581H62.3492C62.6848 12.9581 62.9538 13.2372 62.9538 13.5788V28.7614C63.9316 27.0061 65.3636 25.5716 67.2469 24.4608H67.2498ZM81.1241 32.0937C80.2505 30.4454 79.0731 29.192 77.589 28.3307C76.1049 27.4694 74.4733 27.0417 72.6942 27.0417C70.9151 27.0417 69.3327 27.4813 67.8515 28.3575C66.3674 29.2366 65.1813 30.5077 64.2903 32.1739C63.3993 33.84 62.9538 35.7676 62.9538 37.9535C62.9538 40.1394 63.3993 42.1204 64.2903 43.7865C65.1813 45.4527 66.3674 46.7268 67.8515 47.603C69.3356 48.4821 70.9498 48.9216 72.6942 48.9216C74.4386 48.9216 76.1049 48.4821 77.589 47.603C79.0731 46.7268 80.2505 45.4527 81.1241 43.7865C81.9949 42.1204 82.4317 40.1572 82.4317 37.9C82.4317 35.6428 81.9949 33.742 81.1241 32.0937Z" fill="#F8FAFC"/>
<path d="M96.1499 51.3392C93.9686 50.0859 92.256 48.3009 91.0178 45.9903C89.7797 43.6796 89.1577 41.0007 89.1577 37.9535C89.1577 34.9063 89.7941 32.2838 91.0699 29.9702C92.3428 27.6595 94.0814 25.8834 96.28 24.6479C98.4786 23.4124 100.94 22.7947 103.663 22.7947C106.385 22.7947 108.847 23.4124 111.045 24.6479C113.244 25.8834 114.98 27.6506 116.256 29.9434C117.528 32.2363 118.168 34.9063 118.168 37.9535C118.168 41.0007 117.514 43.6796 116.203 45.9903C114.896 48.3009 113.123 50.0859 110.889 51.3392C108.656 52.5955 106.177 53.2222 103.454 53.2222C100.732 53.2222 98.3311 52.5955 96.1499 51.3392ZM108.271 47.6832C109.773 46.8605 110.985 45.622 111.91 43.9736C112.836 42.3253 113.299 40.3176 113.299 37.9535C113.299 35.5894 112.845 33.5817 111.936 31.9333C111.028 30.285 109.842 29.0584 108.375 28.2505C106.909 27.4457 105.32 27.0417 103.611 27.0417C101.901 27.0417 100.266 27.4457 98.82 28.2505C97.3707 29.0584 96.2106 30.285 95.3369 31.9333C94.4633 33.5817 94.0294 35.5894 94.0294 37.9535C94.0294 40.3176 94.4575 42.3788 95.3109 44.0271C96.1672 45.6754 97.3099 46.9021 98.739 47.7099C100.171 48.5148 101.742 48.9187 103.452 48.9187C105.161 48.9187 106.767 48.5058 108.268 47.6832H108.271Z" fill="#F8FAFC"/>
<path d="M143.041 25.9933C145.205 28.1614 146.287 31.2888 146.287 35.3726V52.1144C146.287 52.4589 146.015 52.7351 145.682 52.7351H142.179C141.843 52.7351 141.574 52.4559 141.574 52.1144V36.0705C141.574 33.1332 140.86 30.8819 139.428 29.3257C137.996 27.7664 136.043 26.9883 133.564 26.9883C131.085 26.9883 129.051 27.7932 127.567 29.4088C126.083 31.0215 125.342 33.3678 125.342 36.4507V52.1174C125.342 52.4619 125.07 52.7381 124.738 52.7381H121.182C120.847 52.7381 120.578 52.4589 120.578 52.1174V23.9025C120.578 23.558 120.849 23.2817 121.182 23.2817H124.738C125.073 23.2817 125.342 23.5609 125.342 23.9025V27.4754C126.285 25.9696 127.567 24.8053 129.19 23.9827C130.813 23.16 132.603 22.7471 134.556 22.7471C138.048 22.7471 140.874 23.8312 143.038 25.9993L143.041 25.9933Z" fill="#F8FAFC"/>
<path d="M150.155 29.9702C151.341 27.6951 152.972 25.931 155.049 24.6747C157.126 23.4213 159.455 22.7947 162.039 22.7947C164.272 22.7947 166.349 23.3233 168.27 24.3806C170.188 25.438 171.655 26.8279 172.667 28.5475V13.5788C172.667 13.2343 172.939 12.9581 173.272 12.9581H176.879C177.215 12.9581 177.484 13.2372 177.484 13.5788V52.1174C177.484 52.4619 177.212 52.7381 176.879 52.7381H173.272C172.936 52.7381 172.667 52.4589 172.667 52.1174V47.202C171.724 48.9573 170.327 50.4007 168.478 51.5293C166.627 52.6579 164.463 53.2222 161.987 53.2222C159.51 53.2222 157.124 52.5777 155.049 51.2887C152.972 49.9968 151.341 48.1881 150.155 45.8596C148.968 43.5311 148.373 40.8789 148.373 37.903C148.373 34.9271 148.966 32.2511 150.155 29.9731V29.9702ZM171.362 32.1472C170.489 30.4988 169.311 29.2366 167.827 28.3575C166.343 27.4783 164.712 27.0417 162.933 27.0417C161.153 27.0417 159.53 27.4724 158.064 28.3307C156.597 29.192 155.428 30.4454 154.555 32.0937C153.681 33.742 153.247 35.6785 153.247 37.9C153.247 40.1216 153.684 42.1204 154.555 43.7865C155.425 45.4527 156.597 46.7268 158.064 47.603C159.53 48.4821 161.153 48.9216 162.933 48.9216C164.712 48.9216 166.343 48.4821 167.827 47.603C169.311 46.7268 170.489 45.4527 171.362 43.7865C172.236 42.1204 172.67 40.175 172.67 37.9535C172.67 35.7319 172.233 33.7955 171.362 32.1472Z" fill="#F8FAFC"/>
<path d="M181.557 17.5259C180.929 16.8814 180.614 16.0914 180.614 15.1618C180.614 14.2322 180.929 13.4422 181.557 12.7977C182.185 12.1532 182.951 11.8295 183.86 11.8295C184.768 11.8295 185.474 12.1532 186.084 12.7977C186.695 13.4422 187.001 14.2322 187.001 15.1618C187.001 16.0914 186.695 16.8814 186.084 17.5259C185.474 18.1704 184.73 18.4941 183.86 18.4941C182.989 18.4941 182.185 18.1704 181.557 17.5259Z" fill="#00DAF1"/>
<path d="M185.558 23.2788H182.002C181.669 23.2788 181.398 23.5567 181.398 23.8995V52.1173C181.398 52.4602 181.669 52.7381 182.002 52.7381H185.558C185.892 52.7381 186.162 52.4602 186.162 52.1173V23.8995C186.162 23.5567 185.892 23.2788 185.558 23.2788Z" fill="#F8FAFC"/>
<defs>
<linearGradient id="paint0_linear_341_1826" x1="20.7824" y1="-10.6622" x2="20.8157" y2="30.2913" gradientUnits="userSpaceOnUse">
<stop offset="0.0975716" stop-color="#4E7FEA"/>
<stop offset="0.152605" stop-color="#0B3EAF"/>
<stop offset="0.221547" stop-color="#EDEEFF"/>
<stop offset="0.552229" stop-color="#C2CFFF"/>
</linearGradient>
<linearGradient id="paint1_linear_341_1826" x1="22.3108" y1="33.5471" x2="22.314" y2="42.5777" gradientUnits="userSpaceOnUse">
<stop offset="0.0975716" stop-color="#4E7FEA"/>
<stop offset="0.152605" stop-color="#0B3EAF"/>
<stop offset="0.221547" stop-color="#EDEEFF"/>
<stop offset="0.552229" stop-color="#C2CFFF"/>
</linearGradient>
</defs>
</svg>
