<svg width="14" height="20" viewBox="0 0 14 20" fill="none" xmlns="http://www.w3.org/2000/svg">
<path d="M5.5 2H8.5C8.36667 2 8.1625 2 7.8875 2C7.6125 2 7.31667 2 7 2C6.68333 2 6.3875 2 6.1125 2C5.8375 2 5.63333 2 5.5 2ZM5.5 18C5.63333 18 5.8375 18 6.1125 18C6.3875 18 6.68333 18 7 18C7.31667 18 7.6125 18 7.8875 18C8.1625 18 8.36667 18 8.5 18H5.5ZM4 20L2.65 15.45C1.85 14.8167 1.20833 14.025 0.725 13.075C0.241667 12.125 0 11.1 0 10C0 8.9 0.241667 7.875 0.725 6.925C1.20833 5.975 1.85 5.18333 2.65 4.55L4 0H10L11.35 4.55C12.15 5.18333 12.7917 5.975 13.275 6.925C13.7583 7.875 14 8.9 14 10C14 11.1 13.7583 12.125 13.275 13.075C12.7917 14.025 12.15 14.8167 11.35 15.45L10 20H4ZM7 15C8.38333 15 9.5625 14.5125 10.5375 13.5375C11.5125 12.5625 12 11.3833 12 10C12 8.61667 11.5125 7.4375 10.5375 6.4625C9.5625 5.4875 8.38333 5 7 5C5.61667 5 4.4375 5.4875 3.4625 6.4625C2.4875 7.4375 2 8.61667 2 10C2 11.3833 2.4875 12.5625 3.4625 13.5375C4.4375 14.5125 5.61667 15 7 15ZM5.1 3.25C5.43333 3.16667 5.75417 3.1 6.0625 3.05C6.37083 3 6.68333 2.975 7 2.975C7.31667 2.975 7.62917 3 7.9375 3.05C8.24583 3.1 8.56667 3.16667 8.9 3.25L8.5 2H5.5L5.1 3.25ZM5.5 18H8.5L8.9 16.75C8.56667 16.8333 8.24583 16.8958 7.9375 16.9375C7.62917 16.9792 7.31667 17 7 17C6.68333 17 6.37083 16.9792 6.0625 16.9375C5.75417 16.8958 5.43333 16.8333 5.1 16.75L5.5 18Z" fill="#003DA2"/>
</svg>
