<svg width="218" height="240" viewBox="0 0 218 240" fill="none" xmlns="http://www.w3.org/2000/svg">
<path d="M109 240C169.199 240 218 236.87 218 233.01C218 229.149 169.199 226.02 109 226.02C48.801 226.02 0 229.149 0 233.01C0 236.87 48.801 240 109 240Z" fill="#E6E6E6"/>
<path d="M123.565 55.3721H122.393V20.2991C122.393 14.9155 120.434 9.75231 116.947 5.94548C113.46 2.13865 108.731 0 103.8 0H35.7415C30.8104 0 26.0814 2.13865 22.5946 5.94548C19.1079 9.75231 17.149 14.9155 17.149 20.2991V212.711C17.149 218.095 19.1079 223.258 22.5946 227.065C26.0814 230.872 30.8104 233.01 35.7415 233.01H103.8C108.731 233.01 113.46 230.872 116.947 227.065C120.434 223.258 122.393 218.095 122.393 212.711V80.3375H123.565V55.3721Z" fill="#3F3D56"/>
<path d="M118.435 20.441V212.57C118.435 216.59 116.972 220.446 114.368 223.289C111.765 226.132 108.233 227.729 104.55 227.729H36.1649C32.4825 227.729 28.951 226.132 26.3471 223.289C23.7432 220.446 22.2803 216.59 22.2802 212.57V20.441C22.2802 16.4205 23.7432 12.5646 26.3471 9.72162C28.951 6.87864 32.4827 5.28143 36.1652 5.28134H44.4614C44.0537 6.37501 43.8984 7.5613 44.0092 8.73587C44.12 9.91043 44.4935 11.0373 45.0968 12.0173C45.7001 12.9973 46.5147 13.8004 47.469 14.3559C48.4233 14.9115 49.4881 15.2025 50.5696 15.2034H89.5599C90.6414 15.2026 91.7062 14.9116 92.6605 14.3561C93.6149 13.8005 94.4296 12.9974 95.0329 12.0174C95.6362 11.0374 96.0097 9.91055 96.1205 8.73596C96.2314 7.56136 96.0761 6.37504 95.6684 5.28134H104.55C108.233 5.28143 111.765 6.87864 114.368 9.72162C116.972 12.5646 118.435 16.4205 118.435 20.441Z" fill="white"/>
<path d="M53.8713 165.907H52.433L52.9132 135.236H53.3933L53.8713 165.907Z" fill="#E6E6E6"/>
<path d="M55.0695 115.926L57.391 112.009C56.7025 109.933 55.9074 107.9 55.0093 105.922L53.5083 107.246L54.6969 105.24C53.564 102.806 52.6728 101.272 52.6728 101.272C52.6728 101.272 48.0176 109.282 46.4615 117.763L49.4405 122.79L46.1433 119.882C46.0259 120.87 45.9655 121.865 45.9625 122.861C45.9625 132.905 48.9671 141.048 52.6734 141.048C56.3797 141.048 59.3844 132.904 59.3844 122.861C59.3844 119.747 58.739 116.489 57.8478 113.476L55.0695 115.926Z" fill="#CCCCCC"/>
<path d="M91.3119 165.907H89.8737L90.3538 135.236H90.834L91.3119 165.907Z" fill="#E6E6E6"/>
<path d="M92.5101 115.926L94.8316 112.009C94.1431 109.933 93.348 107.9 92.4499 105.922L90.9489 107.246L92.1375 105.24C91.0046 102.806 90.1134 101.272 90.1134 101.272C90.1134 101.272 85.4576 109.282 83.9031 117.763L86.8799 122.789L83.5827 119.881C83.4652 120.869 83.4048 121.864 83.4018 122.86C83.4018 132.905 86.4064 141.047 90.1127 141.047C93.8191 141.047 96.8237 132.903 96.8237 122.86C96.8237 119.746 96.1783 116.489 95.2871 113.475L92.5101 115.926Z" fill="#CCCCCC"/>
<path d="M52.7768 64.238C60.075 64.238 65.9913 57.7786 65.9913 49.8105C65.9913 41.8424 60.075 35.383 52.7768 35.383C45.4787 35.383 39.5624 41.8424 39.5624 49.8105C39.5624 57.7786 45.4787 64.238 52.7768 64.238Z" fill="#E6E6E6"/>
<path d="M71.0799 161.441H68.1146L69.1032 98.2003H70.0913L71.0799 161.441Z" fill="#E6E6E6"/>
<path d="M73.5508 58.3848L78.3375 50.3092C76.918 46.0281 75.2784 41.8378 73.4266 37.7582L70.3314 40.4875L72.7822 36.3522C70.4454 31.3326 68.6088 28.17 68.6088 28.17C68.6088 28.17 59.0092 44.6861 55.8019 62.1731L61.9427 72.5376L55.1428 66.5412C54.9006 68.5783 54.7761 70.6299 54.7698 72.6841C54.7698 93.3946 60.9651 110.184 68.6072 110.184C76.2494 110.184 82.4446 93.3946 82.4446 72.6841C82.4446 66.2637 81.1142 59.5466 79.279 53.3328L73.5508 58.3848Z" fill="#CCCCCC"/>
<path d="M118.435 170.557V213.549C118.435 222.268 112.219 229.337 104.55 229.337H36.165C28.4965 229.337 22.2799 222.269 22.2795 213.549V174.748C34.1361 158.922 51.2787 149.463 69.5487 148.667C87.8188 147.87 105.548 155.809 118.435 170.557Z" fill="#E6E6E6"/>
<path opacity="0.2" d="M70.4322 212.966C81.6071 212.966 90.6662 203.075 90.6662 190.874C90.6662 178.673 81.6071 168.783 70.4322 168.783C59.2573 168.783 50.1982 178.673 50.1982 190.874C50.1982 203.075 59.2573 212.966 70.4322 212.966Z" fill="#0052D4"/>
<path d="M70.4323 208.662C79.4303 208.662 86.7247 200.698 86.7247 190.874C86.7247 181.05 79.4303 173.086 70.4323 173.086C61.4342 173.086 54.1399 181.05 54.1399 190.874C54.1399 200.698 61.4342 208.662 70.4323 208.662Z" fill="#0052D4"/>
<path d="M68.5321 198.479L62.7901 190.419L66.1292 187.584L68.8477 191.4L78.0315 180.816L81.1027 183.992L68.5321 198.479Z" fill="white"/>
<path d="M157.013 163.207C162.847 163.207 167.577 158.043 167.577 151.674C167.577 145.304 162.847 140.14 157.013 140.14C151.179 140.14 146.449 145.304 146.449 151.674C146.449 158.043 151.179 163.207 157.013 163.207Z" fill="#2F2E41"/>
<path d="M161.294 216.421L162.108 220.613L177.304 219.18L176.103 212.994L161.294 216.421Z" fill="#FFB8B8"/>
<path d="M160.111 229.521L157.554 216.347L162.216 215.268L163.785 223.352C163.915 224.021 163.923 224.711 163.808 225.382C163.694 226.054 163.459 226.695 163.118 227.268C162.777 227.84 162.336 228.334 161.82 228.721C161.304 229.108 160.723 229.379 160.111 229.521Z" fill="#2F2E41"/>
<path d="M151.774 216.198L150.064 220.055L135.626 214.687L138.151 208.996L151.774 216.198Z" fill="#FFB8B8"/>
<path d="M147.834 222.279L151.133 214.841L155.422 217.109L150.047 229.229C148.909 228.628 148.037 227.558 147.622 226.254C147.207 224.951 147.284 223.521 147.834 222.279Z" fill="#2F2E41"/>
<path d="M123.328 208.581C123.822 208.681 124.331 208.662 124.818 208.525C125.304 208.388 125.758 208.136 126.146 207.787C126.533 207.437 126.846 207 127.063 206.504C127.279 206.008 127.393 205.467 127.397 204.918L151.205 180.952L145.292 175.953L123.737 201.097C122.891 201.15 122.093 201.541 121.494 202.194C120.895 202.847 120.536 203.718 120.486 204.641C120.436 205.563 120.697 206.474 121.221 207.201C121.745 207.927 122.495 208.418 123.328 208.581L123.328 208.581Z" fill="#FFB8B8"/>
<path d="M155.687 163.728C160.03 163.728 163.55 159.885 163.55 155.144C163.55 150.403 160.03 146.56 155.687 146.56C151.345 146.56 147.825 150.403 147.825 155.144C147.825 159.885 151.345 163.728 155.687 163.728Z" fill="#FFB8B8"/>
<path d="M162.743 205.603C157.228 205.603 150.586 204.335 146.488 199.145L146.396 199.028L146.492 198.914C146.524 198.876 149.537 195.115 146.527 188.407L142.388 189.797L138.268 183.86L140.551 176.384L149.891 168.171C151.229 167 152.858 166.295 154.567 166.146C157.661 165.82 160.675 164.883 163.462 163.381C164.737 162.704 166.142 162.369 167.559 162.402L167.743 162.408C168.174 162.421 168.598 162.53 168.99 162.727C169.381 162.925 169.732 163.207 170.021 163.557C170.309 163.907 170.53 164.317 170.669 164.763C170.808 165.209 170.862 165.681 170.829 166.15C170.196 175.108 169.078 196.747 172.363 204.198L172.448 204.39L172.259 204.443C169.136 205.21 165.945 205.599 162.744 205.603L162.743 205.603Z" fill="#0052D4"/>
<path d="M147.57 199.031C147.57 199.031 126.762 196.934 124.521 203.575C122.28 210.215 124.841 213.361 128.683 214.759C132.524 216.157 141.808 217.904 141.808 217.904L145.969 212.312L156.853 213.011C156.853 213.011 168.981 220.691 172.334 228.905C173.053 230.682 174.201 232.213 175.654 233.336C177.107 234.458 178.811 235.129 180.586 235.278C183.275 235.482 185.664 234.374 185.664 229.787C185.664 219.302 172.219 204.273 172.219 204.273L147.57 199.031Z" fill="#2F2E41"/>
<path d="M131.724 209.342C131.724 209.342 137.166 207.594 145.809 212.138L131.724 209.342Z" fill="#2F2E41"/>
<path d="M147.844 149.669C150.915 151.716 154.376 152.961 157.96 153.308L156.893 151.913C157.67 152.227 158.487 152.403 159.314 152.438C159.728 152.451 160.139 152.358 160.514 152.166C160.89 151.974 161.219 151.689 161.475 151.333C161.684 150.964 161.808 150.545 161.837 150.112C161.866 149.679 161.798 149.245 161.64 148.847C161.315 148.052 160.809 147.362 160.171 146.841C159.039 145.864 157.704 145.207 156.283 144.93C154.863 144.653 153.402 144.764 152.03 145.252C151.089 145.559 150.245 146.149 149.597 146.955C149.278 147.361 149.057 147.847 148.953 148.369C148.849 148.891 148.865 149.434 149.001 149.947" fill="#2F2E41"/>
<path d="M156.956 142.808C158.353 139.266 160.445 136.102 163.083 133.538C164.777 131.895 166.755 130.482 168.987 130.056C171.22 129.629 173.736 130.36 175.105 132.331C176.226 133.944 176.434 136.104 176.311 138.122C176.188 140.141 175.775 142.142 175.814 144.163C175.854 146.227 176.366 148.247 177.303 150.041C178.24 151.834 179.572 153.343 181.179 154.432C182.786 155.52 184.616 156.153 186.504 156.273C188.391 156.394 190.277 155.997 191.989 155.12C190.061 156.284 188.559 158.126 186.771 159.527C184.982 160.928 182.621 161.89 180.589 160.963C178.438 159.985 177.451 157.322 176.681 154.92L173.246 144.212C172.662 142.391 172.049 140.517 170.857 139.093C169.665 137.67 167.731 136.801 166.091 137.517C164.847 138.06 164.038 139.355 163.328 140.593C162.618 141.831 161.869 143.151 160.671 143.801C159.473 144.451 157.694 144.051 157.303 142.653" fill="#2F2E41"/>
<path d="M159.654 205.633C159.519 205.633 159.383 205.625 159.248 205.609C158.354 205.499 157.531 205.019 156.951 204.267C156.37 203.516 156.075 202.551 156.126 201.569C156.178 200.588 156.571 199.665 157.226 198.991C157.882 198.316 158.748 197.942 159.649 197.944C159.806 197.944 159.963 197.957 160.118 197.982L170.867 185.489L169.745 181.405L175.379 178.646L176.958 182.861C177.488 184.289 177.582 185.865 177.226 187.356C176.87 188.847 176.083 190.172 174.983 191.136L163.151 201.411C163.163 201.537 163.17 201.662 163.17 201.788C163.17 202.329 163.065 202.864 162.863 203.358C162.661 203.852 162.366 204.293 161.997 204.654C161.355 205.287 160.519 205.636 159.654 205.633Z" fill="#FFB8B8"/>
<path d="M168.057 164.081C168.43 163.9 168.832 163.803 169.24 163.796C169.648 163.79 170.053 163.873 170.43 164.041C170.808 164.21 171.15 164.459 171.437 164.776C171.724 165.092 171.949 165.469 172.1 165.883L177.661 181.207L169.018 187.498L168.057 164.081Z" fill="#0052D4"/>
</svg>
