<svg width="197" height="55" viewBox="0 0 197 55" fill="none" xmlns="http://www.w3.org/2000/svg">
<g clip-path="url(#clip0_423_936)">
<path d="M50.3128 46.1276L46.1741 14.2945C46.037 13.2714 45.1105 12.5005 44.0195 12.5005H36.3151V10.4658C36.3151 4.69701 31.3232 0 25.1853 0C19.0474 0 14.0554 4.69701 14.0554 10.4658V12.5005V16.5785V21.9805C12.8486 22.6712 12.0379 23.9149 12.0379 25.3421C12.0379 27.5172 13.9122 29.2768 16.2223 29.2768C18.5324 29.2768 20.4066 27.5143 20.4066 25.3421C20.4066 23.9149 19.596 22.6712 18.3891 21.9805V16.5785H28.9704V12.5005H18.3891V10.4658C18.3891 6.94378 21.4367 4.078 25.1822 4.078C28.9277 4.078 31.9753 6.94378 31.9753 10.4658V12.5005V16.5785V21.9805C30.7685 22.6712 29.9578 23.9149 29.9578 25.3421C29.9578 27.5172 31.8321 29.2768 34.1422 29.2768C36.4523 29.2768 38.3265 27.5143 38.3265 25.3421C38.3265 23.9149 37.5159 22.6712 36.309 21.9805V16.5785H42.0903L45.9974 46.6233C46.1436 47.7238 45.7901 48.7927 45.0038 49.6295C44.2206 50.4606 43.1357 50.9191 41.9471 50.9191H8.41433C7.23186 50.9191 6.14387 50.4606 5.35759 49.6295C4.57435 48.7927 4.22388 47.7238 4.36407 46.6205L8.27109 16.5785H11.0505V12.5005H6.34806C5.25397 12.5005 4.33055 13.2714 4.1995 14.2945L0.0608556 46.1276C-0.231714 48.3715 0.514948 50.6326 2.10884 52.332C3.70883 54.0285 6.00673 55 8.41128 55H41.9471C44.3608 55 46.6587 54.0256 48.2495 52.332C49.8495 50.6354 50.5992 48.3743 50.3067 46.1276H50.3128Z" fill="#1273FF"/>
<path d="M38.0615 35.3293C38.0828 34.951 37.7506 34.6387 37.3483 34.6387H13.0224C12.6201 34.6387 12.2849 34.951 12.3092 35.3293C12.6902 41.7057 18.31 46.7666 25.1854 46.7666C32.0607 46.7666 37.6805 41.7057 38.0615 35.3293Z" fill="#1273FF"/>
<path d="M70.8445 23.6025C72.8285 22.5307 75.0929 21.9948 77.6285 21.9948C80.35 21.9948 82.7942 22.5995 84.9641 23.8089C87.134 25.0211 88.8437 26.7234 90.0932 28.9186C91.3427 31.1137 91.9674 33.6643 91.9674 36.5702C91.9674 39.4761 91.3427 41.998 90.0932 44.2476C88.8437 46.4944 87.1218 48.2425 84.9366 49.4862C82.7485 50.73 80.3104 51.3519 77.6285 51.3519C74.9466 51.3519 72.7279 50.816 70.7592 49.7442C68.7904 48.6724 67.3124 47.3054 66.3188 45.6461V50.2858C66.3188 50.6182 66.0324 50.8847 65.6819 50.8847H61.9364C61.5829 50.8847 61.2994 50.6154 61.2994 50.2858V13.1023C61.2994 12.7699 61.5859 12.5034 61.9364 12.5034H65.6819C66.0354 12.5034 66.3188 12.7728 66.3188 13.1023V27.7522C67.3489 26.0585 68.8575 24.6743 70.8415 23.6025H70.8445ZM85.4608 30.9676C84.5405 29.3771 83.3001 28.1677 81.7367 27.3366C80.1732 26.5056 78.4544 26.0929 76.5801 26.0929C74.7058 26.0929 73.0388 26.517 71.4784 27.3624C69.915 28.2107 68.6655 29.4373 67.7268 31.045C66.7882 32.6527 66.3188 34.5126 66.3188 36.6218C66.3188 38.731 66.7882 40.6425 67.7268 42.2502C68.6655 43.8579 69.915 45.0873 71.4784 45.9327C73.0418 46.7809 74.7424 47.2051 76.5801 47.2051C78.4178 47.2051 80.1732 46.7809 81.7367 45.9327C83.3001 45.0873 84.5405 43.8579 85.4608 42.2502C86.3782 40.6425 86.8383 38.7482 86.8383 36.5702C86.8383 34.3922 86.3782 32.5581 85.4608 30.9676Z" fill="#00DAF1"/>
<path d="M101.29 49.5378C98.9922 48.3285 97.1881 46.6061 95.8837 44.3766C94.5793 42.147 93.9241 39.5621 93.9241 36.6218C93.9241 33.6815 94.5945 31.151 95.9385 28.9186C97.2795 26.689 99.1111 24.9753 101.427 23.7831C103.743 22.5909 106.337 21.9948 109.205 21.9948C112.073 21.9948 114.666 22.5909 116.982 23.7831C119.298 24.9753 121.127 26.6804 122.471 28.8928C123.812 31.1051 124.485 33.6815 124.485 36.6218C124.485 39.5621 123.797 42.147 122.416 44.3766C121.039 46.6061 119.17 48.3285 116.818 49.5378C114.465 50.7501 111.853 51.3547 108.985 51.3547C106.118 51.3547 103.588 50.7501 101.29 49.5378ZM114.06 46.0101C115.641 45.2162 116.918 44.0212 117.893 42.4307C118.869 40.8402 119.356 38.9029 119.356 36.6218C119.356 34.3406 118.878 32.4033 117.921 30.8128C116.964 29.2223 115.714 28.0388 114.169 27.2593C112.624 26.4827 110.951 26.0929 109.15 26.0929C107.349 26.0929 105.627 26.4827 104.103 27.2593C102.576 28.0388 101.354 29.2223 100.434 30.8128C99.5134 32.4033 99.0562 34.3406 99.0562 36.6218C99.0562 38.9029 99.5073 40.8918 100.406 42.4823C101.308 44.0728 102.512 45.2564 104.018 46.0358C105.526 46.8125 107.181 47.2022 108.982 47.2022C110.783 47.2022 112.475 46.8039 114.057 46.0101H114.06Z" fill="#00DAF1"/>
<path d="M150.689 25.0813C152.968 27.1733 154.108 30.191 154.108 34.1314V50.2858C154.108 50.6182 153.822 50.8847 153.471 50.8847H149.78C149.427 50.8847 149.144 50.6154 149.144 50.2858V34.8049C149.144 31.9706 148.391 29.7984 146.882 28.2967C145.374 26.7922 143.317 26.0413 140.705 26.0413C138.093 26.0413 135.95 26.8179 134.387 28.3769C132.824 29.933 132.043 32.197 132.043 35.1717V50.2887C132.043 50.6211 131.757 50.8876 131.406 50.8876H127.661C127.307 50.8876 127.024 50.6182 127.024 50.2887V23.0638C127.024 22.7313 127.311 22.4648 127.661 22.4648H131.406C131.76 22.4648 132.043 22.7342 132.043 23.0638V26.5113C133.037 25.0584 134.387 23.935 136.097 23.1412C137.806 22.3473 139.693 21.949 141.75 21.949C145.429 21.949 148.406 22.995 150.686 25.087L150.689 25.0813Z" fill="#00DAF1"/>
<path d="M158.183 28.9186C159.432 26.7234 161.151 25.0211 163.339 23.8089C165.527 22.5995 167.981 21.9948 170.702 21.9948C173.055 21.9948 175.243 22.5049 177.267 23.5252C179.287 24.5454 180.833 25.8866 181.899 27.5459V13.1023C181.899 12.7699 182.186 12.5034 182.536 12.5034H186.336C186.69 12.5034 186.973 12.7728 186.973 13.1023V50.2887C186.973 50.6211 186.687 50.8876 186.336 50.8876H182.536C182.183 50.8876 181.899 50.6182 181.899 50.2887V45.5458C180.906 47.2395 179.434 48.6322 177.486 49.7212C175.536 50.8102 173.256 51.3547 170.647 51.3547C168.039 51.3547 165.524 50.7329 163.339 49.4891C161.151 48.2425 159.432 46.4972 158.183 44.2505C156.933 42.0037 156.305 39.4446 156.305 36.5731C156.305 33.7015 156.93 31.1195 158.183 28.9214V28.9186ZM180.525 31.0192C179.604 29.4287 178.364 28.2107 176.801 27.3624C175.237 26.5142 173.518 26.0929 171.644 26.0929C169.77 26.0929 168.06 26.5084 166.515 27.3367C164.97 28.1677 163.739 29.3771 162.818 30.9676C161.898 32.5581 161.441 34.4266 161.441 36.5702C161.441 38.7138 161.901 40.6425 162.818 42.2502C163.735 43.8579 164.97 45.0873 166.515 45.9327C168.06 46.781 169.77 47.2051 171.644 47.2051C173.518 47.2051 175.237 46.781 176.801 45.9327C178.364 45.0873 179.604 43.8579 180.525 42.2502C181.445 40.6425 181.902 38.7654 181.902 36.6218C181.902 34.4782 181.442 32.6097 180.525 31.0192Z" fill="#00DAF1"/>
<path d="M191.264 16.911C190.603 16.2891 190.271 15.5268 190.271 14.6298C190.271 13.7328 190.603 12.9705 191.264 12.3486C191.926 11.7268 192.733 11.4144 193.69 11.4144C194.647 11.4144 195.391 11.7268 196.034 12.3486C196.677 12.9705 197 13.7328 197 14.6298C197 15.5268 196.677 16.2891 196.034 16.911C195.391 17.5328 194.608 17.8452 193.69 17.8452C192.773 17.8452 191.926 17.5328 191.264 16.911Z" fill="#1273FF"/>
<path d="M195.479 22.462H191.734C191.382 22.462 191.097 22.7301 191.097 23.0609V50.2887C191.097 50.6195 191.382 50.8876 191.734 50.8876H195.479C195.831 50.8876 196.116 50.6195 196.116 50.2887V23.0609C196.116 22.7301 195.831 22.462 195.479 22.462Z" fill="#00DAF1"/>
</g>
<defs>
<clipPath id="clip0_423_936">
<rect width="197" height="55" fill="white"/>
</clipPath>
</defs>
</svg>
