<svg width="12" height="11" viewBox="0 0 12 11" fill="none" xmlns="http://www.w3.org/2000/svg">
<path d="M5.83333 10.7042L4.9875 9.94583C4.00556 9.06111 3.19375 8.29792 2.55208 7.65625C1.91042 7.01458 1.4 6.43854 1.02083 5.92812C0.641667 5.41771 0.376736 4.94861 0.226042 4.52083C0.0753472 4.09306 0 3.65556 0 3.20833C0 2.29444 0.30625 1.53125 0.91875 0.91875C1.53125 0.30625 2.29444 0 3.20833 0C3.71389 0 4.19514 0.106944 4.65208 0.320833C5.10903 0.534722 5.50278 0.836111 5.83333 1.225C6.16389 0.836111 6.55764 0.534722 7.01458 0.320833C7.47153 0.106944 7.95278 0 8.45833 0C9.37222 0 10.1354 0.30625 10.7479 0.91875C11.3604 1.53125 11.6667 2.29444 11.6667 3.20833C11.6667 3.65556 11.5913 4.09306 11.4406 4.52083C11.2899 4.94861 11.025 5.41771 10.6458 5.92812C10.2667 6.43854 9.75625 7.01458 9.11458 7.65625C8.47292 8.29792 7.66111 9.06111 6.67917 9.94583L5.83333 10.7042ZM5.83333 9.12917C6.76667 8.29306 7.53472 7.57604 8.1375 6.97813C8.74028 6.38021 9.21667 5.86007 9.56667 5.41771C9.91667 4.97535 10.1597 4.5816 10.2958 4.23646C10.4319 3.89132 10.5 3.54861 10.5 3.20833C10.5 2.625 10.3056 2.13889 9.91667 1.75C9.52778 1.36111 9.04167 1.16667 8.45833 1.16667C8.00139 1.16667 7.57847 1.29549 7.18958 1.55313C6.80069 1.81076 6.53333 2.13889 6.3875 2.5375H5.27917C5.13333 2.13889 4.86597 1.81076 4.47708 1.55313C4.08819 1.29549 3.66528 1.16667 3.20833 1.16667C2.625 1.16667 2.13889 1.36111 1.75 1.75C1.36111 2.13889 1.16667 2.625 1.16667 3.20833C1.16667 3.54861 1.23472 3.89132 1.37083 4.23646C1.50694 4.5816 1.75 4.97535 2.1 5.41771C2.45 5.86007 2.92639 6.38021 3.52917 6.97813C4.13194 7.57604 4.9 8.29306 5.83333 9.12917Z" fill="white"/>
</svg>
