<svg width="20" height="20" viewBox="0 0 20 20" fill="none" xmlns="http://www.w3.org/2000/svg">
<path d="M5 19.1667C4.30556 19.1667 3.71528 18.9236 3.22917 18.4375C2.74306 17.9514 2.5 17.3611 2.5 16.6667C2.5 15.9722 2.74306 15.3819 3.22917 14.8958C3.71528 14.4097 4.30556 14.1667 5 14.1667C5.19444 14.1667 5.375 14.1875 5.54167 14.2292C5.70833 14.2708 5.86806 14.3264 6.02083 14.3958L7.20833 12.9167C6.81944 12.4861 6.54861 12 6.39583 11.4583C6.24306 10.9167 6.20833 10.375 6.29167 9.83333L4.60417 9.27083C4.36806 9.61806 4.06944 9.89583 3.70833 10.1042C3.34722 10.3125 2.94444 10.4167 2.5 10.4167C1.80556 10.4167 1.21528 10.1736 0.729167 9.6875C0.243056 9.20139 0 8.61111 0 7.91667C0 7.22222 0.243056 6.63194 0.729167 6.14583C1.21528 5.65972 1.80556 5.41667 2.5 5.41667C3.19444 5.41667 3.78472 5.65972 4.27083 6.14583C4.75694 6.63194 5 7.22222 5 7.91667C5 7.94444 5 7.97222 5 8C5 8.02778 5 8.05556 5 8.08333L6.6875 8.66667C6.96528 8.16667 7.33681 7.74306 7.80208 7.39583C8.26736 7.04861 8.79167 6.82639 9.375 6.72917V4.91667C8.83333 4.76389 8.38542 4.46875 8.03125 4.03125C7.67708 3.59375 7.5 3.08333 7.5 2.5C7.5 1.80556 7.74306 1.21528 8.22917 0.729167C8.71528 0.243056 9.30556 0 10 0C10.6944 0 11.2847 0.243056 11.7708 0.729167C12.2569 1.21528 12.5 1.80556 12.5 2.5C12.5 3.08333 12.3194 3.59375 11.9583 4.03125C11.5972 4.46875 11.1528 4.76389 10.625 4.91667V6.72917C11.2083 6.82639 11.7326 7.04861 12.1979 7.39583C12.6632 7.74306 13.0347 8.16667 13.3125 8.66667L15 8.08333C15 8.05556 15 8.02778 15 8C15 7.97222 15 7.94444 15 7.91667C15 7.22222 15.2431 6.63194 15.7292 6.14583C16.2153 5.65972 16.8056 5.41667 17.5 5.41667C18.1944 5.41667 18.7847 5.65972 19.2708 6.14583C19.7569 6.63194 20 7.22222 20 7.91667C20 8.61111 19.7569 9.20139 19.2708 9.6875C18.7847 10.1736 18.1944 10.4167 17.5 10.4167C17.0556 10.4167 16.6493 10.3125 16.2812 10.1042C15.9132 9.89583 15.6181 9.61806 15.3958 9.27083L13.7083 9.83333C13.7917 10.375 13.7569 10.9132 13.6042 11.4479C13.4514 11.9826 13.1806 12.4722 12.7917 12.9167L13.9792 14.375C14.1319 14.3056 14.2917 14.2535 14.4583 14.2188C14.625 14.184 14.8056 14.1667 15 14.1667C15.6944 14.1667 16.2847 14.4097 16.7708 14.8958C17.2569 15.3819 17.5 15.9722 17.5 16.6667C17.5 17.3611 17.2569 17.9514 16.7708 18.4375C16.2847 18.9236 15.6944 19.1667 15 19.1667C14.3056 19.1667 13.7153 18.9236 13.2292 18.4375C12.7431 17.9514 12.5 17.3611 12.5 16.6667C12.5 16.3889 12.5451 16.1215 12.6354 15.8646C12.7257 15.6076 12.8472 15.375 13 15.1667L11.8125 13.6875C11.2431 14.0069 10.6354 14.1667 9.98958 14.1667C9.34375 14.1667 8.73611 14.0069 8.16667 13.6875L7 15.1667C7.15278 15.375 7.27431 15.6076 7.36458 15.8646C7.45486 16.1215 7.5 16.3889 7.5 16.6667C7.5 17.3611 7.25694 17.9514 6.77083 18.4375C6.28472 18.9236 5.69444 19.1667 5 19.1667ZM2.5 8.75C2.73611 8.75 2.93403 8.67014 3.09375 8.51042C3.25347 8.35069 3.33333 8.15278 3.33333 7.91667C3.33333 7.68056 3.25347 7.48264 3.09375 7.32292C2.93403 7.16319 2.73611 7.08333 2.5 7.08333C2.26389 7.08333 2.06597 7.16319 1.90625 7.32292C1.74653 7.48264 1.66667 7.68056 1.66667 7.91667C1.66667 8.15278 1.74653 8.35069 1.90625 8.51042C2.06597 8.67014 2.26389 8.75 2.5 8.75ZM5 17.5C5.23611 17.5 5.43403 17.4201 5.59375 17.2604C5.75347 17.1007 5.83333 16.9028 5.83333 16.6667C5.83333 16.4306 5.75347 16.2326 5.59375 16.0729C5.43403 15.9132 5.23611 15.8333 5 15.8333C4.76389 15.8333 4.56597 15.9132 4.40625 16.0729C4.24653 16.2326 4.16667 16.4306 4.16667 16.6667C4.16667 16.9028 4.24653 17.1007 4.40625 17.2604C4.56597 17.4201 4.76389 17.5 5 17.5ZM10 3.33333C10.2361 3.33333 10.434 3.25347 10.5938 3.09375C10.7535 2.93403 10.8333 2.73611 10.8333 2.5C10.8333 2.26389 10.7535 2.06597 10.5938 1.90625C10.434 1.74653 10.2361 1.66667 10 1.66667C9.76389 1.66667 9.56597 1.74653 9.40625 1.90625C9.24653 2.06597 9.16667 2.26389 9.16667 2.5C9.16667 2.73611 9.24653 2.93403 9.40625 3.09375C9.56597 3.25347 9.76389 3.33333 10 3.33333ZM10 12.5C10.5833 12.5 11.0764 12.2986 11.4792 11.8958C11.8819 11.4931 12.0833 11 12.0833 10.4167C12.0833 9.83333 11.8819 9.34028 11.4792 8.9375C11.0764 8.53472 10.5833 8.33333 10 8.33333C9.41667 8.33333 8.92361 8.53472 8.52083 8.9375C8.11806 9.34028 7.91667 9.83333 7.91667 10.4167C7.91667 11 8.11806 11.4931 8.52083 11.8958C8.92361 12.2986 9.41667 12.5 10 12.5ZM15 17.5C15.2361 17.5 15.434 17.4201 15.5938 17.2604C15.7535 17.1007 15.8333 16.9028 15.8333 16.6667C15.8333 16.4306 15.7535 16.2326 15.5938 16.0729C15.434 15.9132 15.2361 15.8333 15 15.8333C14.7639 15.8333 14.566 15.9132 14.4062 16.0729C14.2465 16.2326 14.1667 16.4306 14.1667 16.6667C14.1667 16.9028 14.2465 17.1007 14.4062 17.2604C14.566 17.4201 14.7639 17.5 15 17.5ZM17.5 8.75C17.7361 8.75 17.934 8.67014 18.0938 8.51042C18.2535 8.35069 18.3333 8.15278 18.3333 7.91667C18.3333 7.68056 18.2535 7.48264 18.0938 7.32292C17.934 7.16319 17.7361 7.08333 17.5 7.08333C17.2639 7.08333 17.066 7.16319 16.9062 7.32292C16.7465 7.48264 16.6667 7.68056 16.6667 7.91667C16.6667 8.15278 16.7465 8.35069 16.9062 8.51042C17.066 8.67014 17.2639 8.75 17.5 8.75Z" fill="white"/>
</svg>
