<svg width="24" height="23" viewBox="0 0 24 23" fill="none" xmlns="http://www.w3.org/2000/svg">
<rect x="2" y="2" width="19" height="18.5" rx="9.25" fill="#00C4FD"/>
<g filter="url(#filter0_d_208_1606)">
<rect x="2" y="2" width="19.02" height="19" rx="9.5" fill="white" fill-opacity="0.01" shape-rendering="crispEdges"/>
</g>
<path d="M9.8 16.5L8.85 14.9L7.05 14.5L7.225 12.65L6 11.25L7.225 9.85L7.05 8L8.85 7.6L9.8 6L11.5 6.725L13.2 6L14.15 7.6L15.95 8L15.775 9.85L17 11.25L15.775 12.65L15.95 14.5L14.15 14.9L13.2 16.5L11.5 15.775L9.8 16.5ZM10.225 15.225L11.5 14.675L12.8 15.225L13.5 14.025L14.875 13.7L14.75 12.3L15.675 11.25L14.75 10.175L14.875 8.775L13.5 8.475L12.775 7.275L11.5 7.825L10.2 7.275L9.5 8.475L8.125 8.775L8.25 10.175L7.325 11.25L8.25 12.3L8.125 13.725L9.5 14.025L10.225 15.225ZM10.975 13.025L13.8 10.2L13.1 9.475L10.975 11.6L9.9 10.55L9.2 11.25L10.975 13.025Z" fill="#004D66"/>
<defs>
<filter id="filter0_d_208_1606" x="0" y="0" width="23.02" height="23" filterUnits="userSpaceOnUse" color-interpolation-filters="sRGB">
<feFlood flood-opacity="0" result="BackgroundImageFix"/>
<feColorMatrix in="SourceAlpha" type="matrix" values="0 0 0 0 0 0 0 0 0 0 0 0 0 0 0 0 0 0 127 0" result="hardAlpha"/>
<feMorphology radius="2" operator="dilate" in="SourceAlpha" result="effect1_dropShadow_208_1606"/>
<feOffset/>
<feComposite in2="hardAlpha" operator="out"/>
<feColorMatrix type="matrix" values="0 0 0 0 1 0 0 0 0 1 0 0 0 0 1 0 0 0 1 0"/>
<feBlend mode="normal" in2="BackgroundImageFix" result="effect1_dropShadow_208_1606"/>
<feBlend mode="normal" in="SourceGraphic" in2="effect1_dropShadow_208_1606" result="shape"/>
</filter>
</defs>
</svg>
